<svg viewBox="0 0 200 200" xmlns="http://www.w3.org/2000/svg">
  <!-- Watering can -->
  <ellipse cx="100" cy="120" rx="25" ry="15" fill="#4A90E2"/>
  <rect x="75" y="110" width="50" height="20" fill="#4A90E2" rx="10"/>
  
  <!-- Watering can handle -->
  <path d="M125 115 Q140 110 140 125 Q140 135 130 135" stroke="#4A90E2" stroke-width="4" fill="none"/>
  
  <!-- Watering can spout -->
  <rect x="60" y="117" width="20" height="6" fill="#4A90E2" rx="3"/>
  
  <!-- Water drops -->
  <g class="water-drops">
    <!-- Main water stream -->
    <path d="M45 123 Q40 130 35 140 Q30 150 35 160" stroke="#00BFFF" stroke-width="2" fill="none" opacity="0.8"/>
    
    <!-- Individual water drops -->
    <circle cx="40" cy="135" r="2" fill="#00BFFF" opacity="0.7">
      <animate attributeName="cy" values="135;160;135" dur="2s" repeatCount="indefinite"/>
      <animate attributeName="opacity" values="0.7;0.3;0.7" dur="2s" repeatCount="indefinite"/>
    </circle>
    
    <circle cx="35" cy="145" r="1.5" fill="#00BFFF" opacity="0.6">
      <animate attributeName="cy" values="145;170;145" dur="2.2s" repeatCount="indefinite"/>
      <animate attributeName="opacity" values="0.6;0.2;0.6" dur="2.2s" repeatCount="indefinite"/>
    </circle>
    
    <circle cx="42" cy="155" r="1" fill="#00BFFF" opacity="0.5">
      <animate attributeName="cy" values="155;175;155" dur="1.8s" repeatCount="indefinite"/>
      <animate attributeName="opacity" values="0.5;0.1;0.5" dur="1.8s" repeatCount="indefinite"/>
    </circle>
    
    <!-- Splash effect at bottom -->
    <circle cx="37" cy="175" r="8" fill="#00BFFF" opacity="0.2">
      <animate attributeName="r" values="2;12;2" dur="2s" repeatCount="indefinite"/>
      <animate attributeName="opacity" values="0.4;0.1;0.4" dur="2s" repeatCount="indefinite"/>
    </circle>
  </g>
  
  <!-- Hand holding the watering can -->
  <ellipse cx="110" cy="105" rx="8" ry="12" fill="#FDBCB4" transform="rotate(-15 110 105)"/>
  <ellipse cx="125" cy="115" rx="6" ry="10" fill="#FDBCB4" transform="rotate(-20 125 115)"/>
</svg> 