<svg viewBox="0 0 100 100" xmlns="http://www.w3.org/2000/svg">
  <!-- Cat head -->
  <ellipse cx="50" cy="45" rx="25" ry="20" fill="#FF8C42"/>
  
  <!-- Cat ears -->
  <polygon points="30,30 20,15 35,25" fill="#FF8C42"/>
  <polygon points="70,30 80,15 65,25" fill="#FF8C42"/>
  <polygon points="28,25 24,18 32,22" fill="#FFB366"/>
  <polygon points="72,25 76,18 68,22" fill="#FFB366"/>
  
  <!-- Cat eyes -->
  <ellipse cx="42" cy="40" rx="4" ry="6" fill="#00FF00"/>
  <ellipse cx="58" cy="40" rx="4" ry="6" fill="#00FF00"/>
  <ellipse cx="42" cy="40" rx="1" ry="4" fill="#000"/>
  <ellipse cx="58" cy="40" rx="1" ry="4" fill="#000"/>
  
  <!-- Cat nose -->
  <polygon points="50,48 48,52 52,52" fill="#FF69B4"/>
  
  <!-- Cat mouth -->
  <path d="M50 52 Q45 55 40 52" stroke="#000" stroke-width="1" fill="none"/>
  <path d="M50 52 Q55 55 60 52" stroke="#000" stroke-width="1" fill="none"/>
  
  <!-- Cat body -->
  <ellipse cx="50" cy="75" rx="18" ry="15" fill="#FF8C42"/>
  
  <!-- Cat paws -->
  <circle cx="38" cy="85" r="5" fill="#FFB366"/>
  <circle cx="62" cy="85" r="5" fill="#FFB366"/>
  
  <!-- Cat tail -->
  <path d="M68 70 Q80 65 85 75 Q80 85 75 80" fill="#FF8C42"/>
</svg> 