<svg width="64" height="64" viewBox="0 0 64 64" xmlns="http://www.w3.org/2000/svg">
  <!-- Background circle -->
  <circle cx="32" cy="32" r="32" fill="#fff3e0"/>
  
  <!-- Face -->
  <circle cx="32" cy="28" r="16" fill="#f3e5ab"/>
  
  <!-- Hair -->
  <path d="M16 20c0-14 6-20 16-20s16 6 16 20c0 3-1 5-3 7H19c-2-2-3-4-3-7z" fill="#FFD700"/>
  
  <!-- Eyes -->
  <circle cx="26" cy="26" r="2" fill="#333"/>
  <circle cx="38" cy="26" r="2" fill="#333"/>
  <circle cx="26.5" cy="25.5" r="0.5" fill="#fff"/>
  <circle cx="38.5" cy="25.5" r="0.5" fill="#fff"/>
  
  <!-- Glasses -->
  <circle cx="26" cy="26" r="6" fill="none" stroke="#444" stroke-width="2"/>
  <circle cx="38" cy="26" r="6" fill="none" stroke="#444" stroke-width="2"/>
  <line x1="32" y1="26" x2="32" y2="26" stroke="#444" stroke-width="2"/>
  
  <!-- Nose -->
  <ellipse cx="32" cy="30" rx="1" ry="1.5" fill="#e6d096"/>
  
  <!-- Mouth -->
  <path d="M29 34c1.5 2 3.5 2 6 0" stroke="#666" stroke-width="1.5" fill="none" stroke-linecap="round"/>
  
  <!-- Body -->
  <rect x="22" y="44" width="20" height="20" rx="4" fill="#2196F3"/>
  
  <!-- Arms -->
  <rect x="14" y="46" width="8" height="4" rx="2" fill="#f3e5ab"/>
  <rect x="42" y="46" width="8" height="4" rx="2" fill="#f3e5ab"/>
</svg> 