<svg width="64" height="64" viewBox="0 0 64 64" xmlns="http://www.w3.org/2000/svg">
  <!-- Background circle -->
  <circle cx="32" cy="32" r="32" fill="#e8f5e9"/>
  
  <!-- Face -->
  <circle cx="32" cy="28" r="16" fill="#ffdbcb"/>
  
  <!-- Hair -->
  <path d="M16 22c0-12 8-18 16-18s16 6 16 18c0 2-1 4-2 6H18c-1-2-2-4-2-6z" fill="#8B4513"/>
  
  <!-- Eyes -->
  <circle cx="26" cy="26" r="2" fill="#333"/>
  <circle cx="38" cy="26" r="2" fill="#333"/>
  <circle cx="26.5" cy="25.5" r="0.5" fill="#fff"/>
  <circle cx="38.5" cy="25.5" r="0.5" fill="#fff"/>
  
  <!-- Nose -->
  <ellipse cx="32" cy="30" rx="1" ry="1.5" fill="#ffb3a0"/>
  
  <!-- Mouth -->
  <path d="M29 34c1.5 2 3.5 2 6 0" stroke="#666" stroke-width="1.5" fill="none" stroke-linecap="round"/>
  
  <!-- Body -->
  <rect x="22" y="44" width="20" height="20" rx="4" fill="#4CAF50"/>
  
  <!-- Arms -->
  <rect x="14" y="46" width="8" height="4" rx="2" fill="#ffdbcb"/>
  <rect x="42" y="46" width="8" height="4" rx="2" fill="#ffdbcb"/>
</svg> 